<svg width="640" height="640" viewBox="0 0 640 640" fill="none" xmlns="http://www.w3.org/2000/svg">
  <rect width="640" height="640" rx="56" fill="url(#paint0_linear)"/>
  <g filter="url(#filter0_dd)">
    <rect x="118" y="164" width="404" height="312" rx="32" fill="white"/>
  </g>
  <rect x="162" y="210" width="145" height="16" rx="8" fill="#D4E4FF"/>
  <rect x="162" y="244" width="230" height="12" rx="6" fill="#E3EDFF"/>
  <rect x="162" y="268" width="188" height="12" rx="6" fill="#E3EDFF"/>
  <rect x="162" y="292" width="214" height="12" rx="6" fill="#E3EDFF"/>
  <rect x="162" y="316" width="170" height="12" rx="6" fill="#E3EDFF"/>
  <rect x="162" y="364" width="316" height="40" rx="20" fill="#3069FE" opacity="0.12"/>
  <g filter="url(#filter1_dd)">
    <circle cx="408" cy="260" r="60" fill="#EDF3FF"/>
  </g>
  <path d="M406.143 303.287C385.455 303.287 368.679 286.51 368.679 265.823C368.679 245.136 385.455 228.359 406.143 228.359C426.83 228.359 443.607 245.136 443.607 265.823" stroke="#3069FE" stroke-width="9.2" stroke-linecap="round"/>
  <path d="M413.857 302.807C434.545 302.807 451.321 286.03 451.321 265.343" stroke="#3069FE" stroke-width="9.2" stroke-linecap="round"/>
  <path d="M357.5 372.5C357.5 360.626 367.126 351 379 351H431C442.874 351 452.5 360.626 452.5 372.5V372.5C452.5 384.374 442.874 394 431 394H379C367.126 394 357.5 384.374 357.5 372.5V372.5Z" fill="#3069FE"/>
  <path d="M218.5 444C218.5 417.61 239.61 396.5 266 396.5H374C400.39 396.5 421.5 417.61 421.5 444C421.5 470.39 400.39 491.5 374 491.5H266C239.61 491.5 218.5 470.39 218.5 444Z" fill="#F1F6FF"/>
  <path d="M171 444C171 393.011 212.011 352 263 352H377C427.989 352 469 393.011 469 444" stroke="#9CB8FF" stroke-width="13" stroke-linecap="round"/>
  <path d="M190 444C190 403.131 223.131 370 264 370H376C416.869 370 450 403.131 450 444" stroke="#3069FE" stroke-width="13" stroke-linecap="round"/>
  <defs>
    <filter id="filter0_dd" x="98" y="144" width="444" height="352" filterUnits="userSpaceOnUse" color-interpolation-filters="sRGB">
      <feFlood flood-opacity="0" result="BackgroundImageFix"/>
      <feColorMatrix in="SourceAlpha" type="matrix" values="0 0 0 0 0 0 0 0 0 0 0 0 0 0 0 0 0 0 127 0" result="hardAlpha"/>
      <feOffset dy="8"/>
      <feGaussianBlur stdDeviation="10"/>
      <feColorMatrix type="matrix" values="0 0 0 0 0.235294 0 0 0 0 0.345098 0 0 0 0 0.968627 0 0 0 0.08 0"/>
      <feBlend mode="normal" in2="BackgroundImageFix" result="effect1_dropShadow"/>
      <feOffset dy="16"/>
      <feGaussianBlur stdDeviation="18"/>
      <feColorMatrix type="matrix" values="0 0 0 0 0.101961 0 0 0 0 0.172549 0 0 0 0 0.466667 0 0 0 0.06 0"/>
      <feBlend mode="normal" in2="effect1_dropShadow" result="effect2_dropShadow"/>
      <feBlend mode="normal" in="SourceGraphic" in2="effect2_dropShadow" result="shape"/>
    </filter>
    <filter id="filter1_dd" x="332" y="184" width="152" height="152" filterUnits="userSpaceOnUse" color-interpolation-filters="sRGB">
      <feFlood flood-opacity="0" result="BackgroundImageFix"/>
      <feColorMatrix in="SourceAlpha" type="matrix" values="0 0 0 0 0 0 0 0 0 0 0 0 0 0 0 0 0 0 127 0" result="hardAlpha"/>
      <feOffset dy="6"/>
      <feGaussianBlur stdDeviation="18"/>
      <feColorMatrix type="matrix" values="0 0 0 0 0.227451 0 0 0 0 0.411765 0 0 0 0 0.960784 0 0 0 0.12 0"/>
      <feBlend mode="normal" in2="BackgroundImageFix" result="effect1_dropShadow"/>
      <feBlend mode="normal" in="SourceGraphic" in2="effect1_dropShadow" result="shape"/>
    </filter>
    <linearGradient id="paint0_linear" x1="120" y1="52" x2="520" y2="572" gradientUnits="userSpaceOnUse">
      <stop stop-color="#F7FAFF"/>
      <stop offset="1" stop-color="#EEF3FF"/>
    </linearGradient>
  </defs>
</svg>
